<mxfile host="app.diagrams.net" agent="Mozilla/5.0 (Windows NT 10.0; Win64; x64) AppleWebKit/537.36 (KHTML, like Gecko) Chrome/136.0.0.0 Safari/537.36" version="27.0.3">
  <diagram name="第 1 页" id="JTOw-R4xczDE6B3bgadq">
    <mxGraphModel dx="1042" dy="535" grid="1" gridSize="10" guides="1" tooltips="1" connect="1" arrows="1" fold="1" page="1" pageScale="1" pageWidth="1100" pageHeight="1700" math="0" shadow="0">
      <root>
        <mxCell id="0" />
        <mxCell id="1" parent="0" />
        <mxCell id="q63pO_5KPYan9ELGK8jh-2" value="&lt;font style=&quot;font-size: 16px;&quot;&gt;发布者1&lt;/font&gt;" style="ellipse;whiteSpace=wrap;html=1;" vertex="1" parent="1">
          <mxGeometry x="190" y="140" width="120" height="80" as="geometry" />
        </mxCell>
        <mxCell id="q63pO_5KPYan9ELGK8jh-10" style="edgeStyle=orthogonalEdgeStyle;rounded=0;orthogonalLoop=1;jettySize=auto;html=1;" edge="1" parent="1" source="q63pO_5KPYan9ELGK8jh-3" target="q63pO_5KPYan9ELGK8jh-5">
          <mxGeometry relative="1" as="geometry" />
        </mxCell>
        <mxCell id="q63pO_5KPYan9ELGK8jh-3" value="&lt;font style=&quot;font-size: 16px;&quot;&gt;发布者2&lt;/font&gt;" style="ellipse;whiteSpace=wrap;html=1;" vertex="1" parent="1">
          <mxGeometry x="190" y="270" width="120" height="80" as="geometry" />
        </mxCell>
        <mxCell id="q63pO_5KPYan9ELGK8jh-4" value="&lt;font style=&quot;font-size: 16px;&quot;&gt;发布者3&lt;/font&gt;" style="ellipse;whiteSpace=wrap;html=1;" vertex="1" parent="1">
          <mxGeometry x="190" y="440" width="120" height="80" as="geometry" />
        </mxCell>
        <mxCell id="q63pO_5KPYan9ELGK8jh-5" value="&lt;font style=&quot;font-size: 16px;&quot;&gt;mqtt broker&lt;/font&gt;" style="shape=cylinder3;whiteSpace=wrap;html=1;boundedLbl=1;backgroundOutline=1;size=15;direction=south;" vertex="1" parent="1">
          <mxGeometry x="540" y="260" width="130" height="100" as="geometry" />
        </mxCell>
        <mxCell id="q63pO_5KPYan9ELGK8jh-6" value="&lt;font style=&quot;font-size: 16px;&quot;&gt;订阅者1&lt;/font&gt;" style="ellipse;whiteSpace=wrap;html=1;" vertex="1" parent="1">
          <mxGeometry x="800" y="140" width="120" height="80" as="geometry" />
        </mxCell>
        <mxCell id="q63pO_5KPYan9ELGK8jh-7" value="&lt;font style=&quot;font-size: 16px;&quot;&gt;订阅者2&lt;/font&gt;" style="ellipse;whiteSpace=wrap;html=1;" vertex="1" parent="1">
          <mxGeometry x="800" y="290" width="120" height="80" as="geometry" />
        </mxCell>
        <mxCell id="q63pO_5KPYan9ELGK8jh-8" value="&lt;font style=&quot;font-size: 16px;&quot;&gt;订阅者3&lt;/font&gt;" style="ellipse;whiteSpace=wrap;html=1;" vertex="1" parent="1">
          <mxGeometry x="800" y="440" width="120" height="80" as="geometry" />
        </mxCell>
        <mxCell id="q63pO_5KPYan9ELGK8jh-9" style="edgeStyle=orthogonalEdgeStyle;rounded=0;orthogonalLoop=1;jettySize=auto;html=1;exitX=1;exitY=0.5;exitDx=0;exitDy=0;entryX=0.34;entryY=1.015;entryDx=0;entryDy=0;entryPerimeter=0;" edge="1" parent="1" source="q63pO_5KPYan9ELGK8jh-2" target="q63pO_5KPYan9ELGK8jh-5">
          <mxGeometry relative="1" as="geometry" />
        </mxCell>
        <mxCell id="q63pO_5KPYan9ELGK8jh-11" style="edgeStyle=orthogonalEdgeStyle;rounded=0;orthogonalLoop=1;jettySize=auto;html=1;entryX=0.74;entryY=0.978;entryDx=0;entryDy=0;entryPerimeter=0;" edge="1" parent="1" source="q63pO_5KPYan9ELGK8jh-4" target="q63pO_5KPYan9ELGK8jh-5">
          <mxGeometry relative="1" as="geometry" />
        </mxCell>
      </root>
    </mxGraphModel>
  </diagram>
</mxfile>
